Coordinates
version=1
nRows=43
nColumns=12
inDegrees=yes

Units are S.I. units (second, meters, Newtons, ...)
Angles are in degrees

endheader
time	SC_y	SC_z	SC_x	AC_y	AC_z	AC_x	GH_y	GH_z	GH_yy	EL_x	PS_y
       0.0              -21.91          17.34          6.491          31.01         -2.432        -0.4177          24.78          86.02         -166.9          49.41          102.7
   0.04422              -21.91          17.34          6.501          31.01         -2.434        -0.4181          24.76          86.01         -166.9          49.41          102.7
   0.08845              -21.92          17.34          6.511          31.01         -2.436        -0.4185          24.74          86.01         -166.9          49.42          102.7
    0.1327              -21.92          17.34          6.522          31.01         -2.438         -0.419          24.72           86.0         -166.9          49.42          102.7
    0.1769              -21.93          17.34          6.533          31.01          -2.44        -0.4195           24.7          85.99         -166.9          49.42          102.6
    0.2211              -21.93          17.33          6.546          31.01         -2.442          -0.42          24.67          85.98         -166.8          49.42          102.6
    0.2653              -21.94          17.33          6.559          31.01         -2.445        -0.4205          24.65          85.97         -166.8          49.42          102.6
    0.3096              -21.94          17.33          6.573          31.01         -2.447        -0.4211          24.62          85.96         -166.8          49.42          102.6
    0.3538              -21.95          17.33          6.588          31.01          -2.45        -0.4217          24.59          85.95         -166.8          49.43          102.6
     0.398              -21.96          17.33          6.604          31.01         -2.453        -0.4224          24.55          85.94         -166.8          49.43          102.6
    0.4422              -21.97          17.32          6.621          31.01         -2.456        -0.4231          24.52          85.93         -166.8          49.43          102.6
    0.4865              -21.98          17.32           6.64          31.01          -2.46        -0.4239          24.48          85.91         -166.7          49.43          102.6
    0.5307              -21.98          17.32           6.66          31.02         -2.463        -0.4248          24.44           85.9         -166.7          49.44          102.5
    0.5749              -21.99          17.31          6.682          31.02         -2.467        -0.4257          24.39          85.88         -166.7          49.44          102.5
    0.6191              -22.01          17.31          6.706          31.02         -2.472        -0.4267          24.35          85.87         -166.7          49.44          102.5
    0.6634              -22.02          17.31          6.731          31.02         -2.476        -0.4277          24.29          85.85         -166.6          49.45          102.5
    0.7076              -22.03           17.3          6.759          31.02         -2.481        -0.4289          24.24          85.83         -166.6          49.45          102.5
    0.7518              -22.04           17.3          6.789          31.02         -2.487        -0.4302          24.17          85.81         -166.6          49.45          102.4
     0.796              -22.06          17.29          6.822          31.03         -2.493        -0.4315          24.11          85.78         -166.6          49.46          102.4
    0.8403              -22.08          17.29          6.858          31.03           -2.5         -0.433          24.03          85.76         -166.5          49.46          102.4
    0.8845              -22.09          17.28          6.898          31.03         -2.507        -0.4347          23.95          85.73         -166.5          49.47          102.3
    0.9287              -22.11          17.28          6.942          31.03         -2.515        -0.4365          23.86           85.7         -166.4          49.48          102.3
    0.9729              -22.14          17.27           6.99          31.03         -2.524        -0.4385          23.76          85.66         -166.4          49.48          102.3
     1.017              -22.16          17.26          7.043          31.04         -2.534        -0.4408          23.65          85.63         -166.3          49.49          102.2
     1.061              -22.19          17.25          7.103          31.04         -2.545        -0.4433          23.53          85.58         -166.3           49.5          102.2
     1.106              -22.22          17.24          7.169          31.05         -2.557         -0.446           23.4          85.54         -166.2          49.51          102.1
      1.15              -22.25          17.23          7.244          31.05          -2.57        -0.4491          23.25          85.48         -166.1          49.52          102.1
     1.194              -22.29          17.22          7.327          31.05         -2.586        -0.4526          23.08          85.42         -166.0          49.53          102.0
     1.238              -22.34          17.21          7.422          31.06         -2.603        -0.4566          22.88          85.36         -165.9          49.54          101.9
     1.282              -22.39          17.19          7.529          31.07         -2.623        -0.4611          22.66          85.28         -165.8          49.56          101.8
     1.327              -22.44          17.18          7.651          31.07         -2.645        -0.4662          22.41          85.19         -165.7          49.58          101.7
     1.371              -22.51          17.15          7.792          31.08         -2.671        -0.4721          22.13          85.09         -165.6          49.59          101.6
     1.415              -22.58          17.13          7.954          31.09         -2.701        -0.4788          21.79          84.97         -165.4          49.62          101.5
     1.459              -22.67           17.1          8.143           31.1         -2.736        -0.4867          21.41          84.84         -165.2          49.64          101.3
     1.504              -22.77          17.07          8.363          31.12         -2.776        -0.4959          20.96          84.68         -165.0          49.67          101.1
     1.548              -22.89          17.03          8.623          31.13         -2.824        -0.5068          20.43           84.5         -164.7          49.71          100.9
     1.592              -23.03          16.99          8.932          31.15         -2.881        -0.5197           19.8          84.27         -164.4          49.75          100.7
     1.636               -23.2          16.94          9.302          31.17         -2.949        -0.5352          19.04          84.01         -164.0          49.81          100.3
     1.681              -23.41          16.87           9.75           31.2         -3.031        -0.5539          18.13          83.69         -163.5          49.87          99.97
     1.725              -23.66          16.79           10.3          31.23         -3.132        -0.5768          17.01           83.3         -163.0          49.94          99.52
     1.769              -23.97           16.7          10.97          31.27         -3.256         -0.605          15.63          82.81         -162.3          50.04          98.96
     1.813              -24.36          16.57          11.82          31.32          -3.41        -0.6402          13.91          82.21         -161.4          50.16          98.26
     1.857              -24.85          16.42          12.88          31.38         -3.605        -0.6845          11.74          81.45         -160.3           50.3          97.38
